<svg id="SvgjsSvg1032" width="288" height="288" xmlns="http://www.w3.org/2000/svg" version="1.1" xmlns:xlink="http://www.w3.org/1999/xlink" xmlns:svgjs="http://svgjs.com/svgjs"><defs id="SvgjsDefs1033"></defs><g id="SvgjsG1034"><svg xmlns="http://www.w3.org/2000/svg" width="288" height="288" viewBox="0 0 48 48"><path d="M46.599 46.599a4.498 4.498 0 0 1-6.363 0l-7.941-7.941C29.028 40.749 25.167 42 21 42 9.402 42 0 32.598 0 21S9.402 0 21 0s21 9.402 21 21c0 4.167-1.251 8.028-3.342 11.295l7.941 7.941a4.498 4.498 0 0 1 0 6.363zM21 6C12.717 6 6 12.714 6 21s6.717 15 15 15c8.286 0 15-6.714 15-15S29.286 6 21 6z" fill="#fb5d19" class="color000 svgShape"></path></svg></g></svg>