<?xml version="1.0" encoding="utf-8"?>
<!-- Generator: Adobe Illustrator 16.0.0, SVG Export Plug-In . SVG Version: 6.00 Build 0)  -->
<!DOCTYPE svg PUBLIC "-//W3C//DTD SVG 1.1//EN" "http://www.w3.org/Graphics/SVG/1.1/DTD/svg11.dtd">
<svg version="1.1" id="Capa_1" xmlns="http://www.w3.org/2000/svg" xmlns:xlink="http://www.w3.org/1999/xlink" x="0px" y="0px"
	 width="169.75px" height="169.744px" viewBox="0 0 169.75 169.744" enable-background="new 0 0 169.75 169.744"
	 xml:space="preserve">
<g>
	<linearGradient id="SVGID_1_" gradientUnits="userSpaceOnUse" x1="84.8745" y1="0" x2="84.8745" y2="151.9239">
		<stop  offset="0" style="stop-color:#5B5B5F"/>
		<stop  offset="0.0231" style="stop-color:#59595D"/>
		<stop  offset="0.4507" style="stop-color:#333335"/>
		<stop  offset="0.7912" style="stop-color:#1C1C1D"/>
		<stop  offset="1" style="stop-color:#141414"/>
	</linearGradient>
	<circle fill="url(#SVGID_1_)" cx="84.875" cy="84.873" r="84.875"/>
</g>
<g display="none">
	<path display="inline" fill="#CC3366" d="M84.876,42.805c23.665,0,42.917,19.252,42.917,42.917
		c0,23.664-19.252,42.917-42.917,42.917c-23.665,0-42.918-19.253-42.918-42.917C41.958,62.058,61.211,42.805,84.876,42.805
		 M84.876,28.805c-31.434,0-56.918,25.483-56.918,56.917c0,31.435,25.484,56.917,56.918,56.917
		c31.434,0,56.917-25.482,56.917-56.917C141.792,54.289,116.31,28.805,84.876,28.805L84.876,28.805z"/>
</g>
<g>
	<path fill="#CC3333" d="M84.875,43.955c22.563,0,40.918,18.355,40.918,40.917s-18.355,40.917-40.918,40.917
		c-22.562,0-40.917-18.355-40.917-40.917S62.313,43.955,84.875,43.955 M84.875,27.955c-31.435,0-56.917,25.482-56.917,56.917
		s25.482,56.917,56.917,56.917c31.436,0,56.918-25.482,56.918-56.917S116.31,27.955,84.875,27.955L84.875,27.955z"/>
</g>
</svg>
