<svg width="355" height="128" viewBox="0 0 355 128" fill="none" xmlns="http://www.w3.org/2000/svg">
<path d="M298.007 1.15061C288.899 5.30961 288.248 19.8661 296.836 25.4114C302.692 29.2932 307.376 28.8773 312.191 24.3024C315.834 20.8365 316.354 19.4502 316.354 13.7662C316.224 10.1618 315.444 6.28004 314.533 5.17098C310.759 0.318815 303.733 -1.34478 298.007 1.15061Z" fill="#FF5D19"/>
<path d="M14.7361 7.11186C5.49757 13.3504 1.07349 22.3615 1.07349 34.4226C1.07349 45.236 3.54577 50.3654 13.4349 60.347C23.324 70.4672 24.2349 74.349 16.5578 75.0421C13.0445 75.3194 10.8325 74.4876 6.92889 71.1604L1.85421 66.8628L0.81325 69.9127C0.16265 71.7149 -0.09759 78.3693 0.03253 84.8851L0.42289 96.6689L6.92889 98.4711C16.6879 101.105 24.2349 100.689 31.9119 96.9462C40.8902 92.3713 45.4444 84.3306 46.2251 71.4377C47.0059 59.2379 45.0541 54.8017 34.3842 43.4338C29.6999 38.5816 25.7963 33.7294 25.7963 32.759C25.7963 29.4318 30.7409 27.9068 34.5143 30.125C43.6227 35.1158 45.3143 38.8589 52.4709 68.665L59.2371 96.8075H71.4684H83.6997L86.172 82.2511C89.0346 65.8923 89.9455 66.5855 91.637 86.5487L92.5479 97.6393L105.039 97.2234L117.401 96.8075L125.598 66.3082C130.153 49.5336 133.536 34.9771 133.145 34.0067C132.234 31.3727 112.066 32.2045 110.504 34.9771C109.854 35.9476 108.683 41.6315 107.772 47.4541C105.039 64.506 104.519 64.6446 101.917 47.87L99.5744 32.3431H90.7262C84.8708 32.3431 81.3576 33.0363 80.0564 34.284C79.0154 35.393 77.1937 42.0474 75.8925 49.1177C73.16 63.6742 72.6395 63.1197 70.0371 44.4042L68.3456 32.3431H56.7649H45.3143V20.5593C45.3143 8.91409 45.1842 8.63682 41.8011 7.11186C39.7191 6.28006 33.7336 5.30962 28.3987 5.03236C20.4614 4.61646 17.9891 4.89373 14.7361 7.11186Z" fill="#29647C"/>
<path d="M263.786 6.28005C263.786 6.55731 261.574 16.4003 258.841 28.1841L253.897 49.6722L263.005 50.0881C267.95 50.3654 272.374 50.2268 272.634 49.8109C274.326 48.1473 287.338 8.35954 286.687 7.25048C286.036 6.14141 264.046 5.30961 263.786 6.28005Z" fill="#FF5D19"/>
<path d="M323.771 23.3319C323.771 31.234 323.511 32.3431 321.299 32.3431C318.566 32.3431 317.265 35.9476 317.265 43.711C317.265 50.504 318.306 53.1381 321.299 53.1381C323.641 53.1381 323.771 54.5244 323.771 75.3194V97.5007H335.482H347.193V75.3194V53.1381H351.096H355V42.7406V32.3431H351.096H347.193V23.3319V14.3208H335.482H323.771V23.3319Z" fill="#FF5D19"/>
<path d="M142.774 35.5317C136.268 40.1066 133.536 49.1177 133.405 66.3083C133.275 81.8352 135.618 89.7373 142.124 96.1144C146.938 100.689 156.307 100.828 162.162 96.253C165.415 93.8963 166.326 93.619 166.326 95.144C166.326 98.0553 169.189 98.887 180.119 98.887H189.747V65.6151V32.3431H177.907C167.367 32.3431 166.066 32.6204 165.415 34.9771C164.764 37.6112 164.764 37.6112 160.731 34.9771C155.136 31.3727 148.239 31.65 142.774 35.5317ZM166.326 64.2288V80.8647H161.902C156.567 80.8647 155.916 79.0625 155.916 64.2288C155.916 49.395 156.567 47.5928 161.902 47.5928H166.326V64.2288Z" fill="#29647C"/>
<path d="M198.596 33.3135L194.952 33.8681V47.4541C194.952 54.9403 194.562 76.0125 194.041 94.4508L193.261 128H205.752H218.374V111.225V94.4508L221.367 96.5303C229.304 102.076 240.885 99.7188 245.569 91.4008C254.417 76.1512 250.514 40.6611 239.323 34.5612C234.379 31.7886 227.222 31.7886 222.278 34.4226C219.025 36.2248 218.504 36.2248 217.853 34.4226C217.203 32.3431 207.704 31.7886 198.596 33.3135ZM228.003 50.6427C229.174 55.6335 228.914 73.3785 227.482 77.2602C226.571 80.0329 225.4 80.8647 222.278 80.8647H218.374V64.2287V47.5927H222.798C226.181 47.5927 227.352 48.2859 228.003 50.6427Z" fill="#29647C"/>
<path d="M295.015 33.3135C292.673 34.0067 291.241 51.0586 291.241 80.4488V97.5007H303.603H315.964V64.9219V32.3431L306.595 32.4817C301.391 32.6204 296.186 32.8976 295.015 33.3135Z" fill="#FF5D19"/>
</svg>
