<svg width="210" height="142" viewBox="0 0 210 142" fill="none" xmlns="http://www.w3.org/2000/svg">
<path d="M53.4393 32.7438C53.1254 33.0574 52.9685 35.2922 52.9685 40.1536V47.1322L56.6957 50.3863C58.7752 52.1897 60.6976 53.6403 61.0115 53.6403C61.3254 53.6403 63.2478 52.1897 65.3273 50.3863L69.0545 47.1322V40.1536C69.0545 35.2922 68.8976 33.0574 68.5837 32.7438C68.2698 32.4302 65.9942 32.2733 61.0115 32.2733C56.0288 32.2733 53.7532 32.4302 53.4393 32.7438Z" fill="#29647C"/>
<path d="M37.7456 49.9944C37.0786 50.6609 37.0786 66.4215 37.7456 67.088C38.0595 67.4016 40.0996 67.5585 44.3762 67.5585H50.5359L53.9101 63.2851C55.7541 60.9327 57.2842 58.7764 57.2842 58.5412C57.2842 58.306 55.7541 56.1497 53.9101 53.7974L50.5359 49.524H44.3762C40.0996 49.524 38.0595 49.6808 37.7456 49.9944Z" fill="#29647C"/>
<path d="M67.9364 53.719C66.1709 55.9929 64.7192 58.11 64.7192 58.3452C64.7192 58.5804 66.1709 60.6975 67.9364 62.9715L71.1144 67.1664H77.4703C81.8646 67.1664 83.944 67.0096 84.2578 66.696C84.9248 66.0295 84.9248 50.6609 84.2578 49.9944C83.944 49.6808 81.8646 49.524 77.4703 49.524H71.1144L67.9364 53.719Z" fill="#29647C"/>
<path d="M56.8135 66.0295L52.9685 69.5972V76.3405C52.9685 81.0452 53.1254 83.2407 53.4393 83.5543C54.1063 84.2208 67.9167 84.2208 68.5837 83.5543C68.8976 83.2407 69.0545 81.0452 69.0545 76.3405V69.558L65.3273 66.1079C63.2478 64.226 61.3646 62.6186 61.09 62.5402C60.8153 62.501 58.8929 64.0692 56.8135 66.0295Z" fill="#29647C"/>
<path d="M146.542 59.1291C143.482 60.7757 142.03 63.2457 142.03 66.8526C142.03 69.793 143.011 71.7533 145.287 73.5959C146.699 74.7329 147.013 74.8113 150.073 74.8113C153.134 74.8113 153.447 74.7329 154.86 73.5959C157.175 71.7141 158.116 69.793 158.116 66.7742C158.116 63.7554 157.175 61.8343 154.86 59.9524C153.526 58.8939 153.016 58.7371 150.544 58.6194C148.504 58.541 147.405 58.6979 146.542 59.1291Z" fill="#FF5D19"/>
<path d="M131.045 75.0467C128.259 76.1444 126.337 79.3593 126.337 82.8486C126.337 85.5145 127.161 87.514 128.965 89.1999C130.417 90.5721 131.829 91.0817 134.183 91.0817C136.538 91.0817 137.95 90.5721 139.402 89.1999C142.972 85.8282 142.972 79.869 139.402 76.4973C138.813 75.9092 137.793 75.2427 137.205 75.0467C135.831 74.537 132.379 74.537 131.045 75.0467Z" fill="#FF5D19"/>
<path d="M162.824 75.4386C160.038 76.5364 158.116 79.7512 158.116 83.2405C158.116 85.9065 158.94 87.906 160.745 89.5918C162.196 90.964 163.609 91.4737 165.963 91.4737C168.317 91.4737 169.729 90.964 171.181 89.5918C174.751 86.2202 174.751 80.2609 171.181 76.8892C170.592 76.3012 169.572 75.6347 168.984 75.4386C167.611 74.929 164.158 74.929 162.824 75.4386Z" fill="#FF5D19"/>
<path d="M146.542 92.0618C143.482 93.7084 142.03 96.1783 142.03 99.7852C142.03 102.726 143.011 104.686 145.287 106.529C146.699 107.666 147.013 107.744 150.073 107.744C153.134 107.744 153.447 107.666 154.86 106.529C157.175 104.647 158.116 102.726 158.116 99.7068C158.116 96.688 157.175 94.7669 154.86 92.8851C153.526 91.8265 153.016 91.6697 150.544 91.5521C148.504 91.4737 147.405 91.6305 146.542 92.0618Z" fill="#FF5D19"/>
<path d="M52.8703 0.486443C35.058 2.36831 18.8151 12.5225 9.24192 27.7342C5.55391 33.6543 2.37594 42.0442 1.08121 49.2973C0.139595 54.59 0.139595 63.9993 1.08121 69.292C2.37594 76.5451 5.55391 84.935 9.24192 90.8551C15.0093 100.029 24.1901 108.184 33.881 112.771C55.499 123.004 81.0012 118.926 98.3035 102.499C105.797 95.3637 110.937 87.1697 114.036 77.5252C116.351 70.2722 116.704 67.2926 117.057 51.6496C117.45 35.1049 117.567 1.62341 117.214 0.72168C116.979 0.172798 113.958 0.0943909 86.2978 0.133598C69.4663 0.172798 54.4004 0.32962 52.8703 0.486443ZM109.995 16.1686C109.995 20.4812 109.956 24.0097 109.878 24.0097C109.838 24.0097 106.268 20.4812 101.952 16.1686L94.1054 8.32754H102.07H109.995V16.1686ZM94.2231 44.279C94.0662 65.2931 94.0662 65.842 93.1638 68.9C89.515 81.6026 80.1773 91.0903 67.8185 94.658C65.1506 95.4029 63.7774 95.5597 58.5985 95.5597C53.4196 95.5597 52.0464 95.4029 49.3785 94.658C36.9412 91.0903 27.4858 81.4065 23.994 68.6648C23.2485 65.8812 23.0916 64.4306 23.0916 59.2947C23.0916 52.4729 23.7978 49.0228 26.1911 43.7693C31.1738 33.0662 41.3355 25.1467 52.6349 23.2256C53.655 23.0688 63.4635 22.912 74.4099 22.8728L94.3408 22.8336L94.2231 44.279Z" fill="#29647C"/>
<path d="M157.13 141.514C174.942 139.632 191.185 129.477 200.758 114.266C204.446 108.346 207.624 99.9557 208.919 92.7027C209.86 87.41 209.86 78.0007 208.919 72.7079C207.624 65.4549 204.446 57.065 200.758 51.1449C194.991 41.9709 185.81 33.8161 176.119 29.2291C154.501 18.9965 128.999 23.0738 111.697 39.5009C104.203 46.6363 99.0631 54.8302 95.9636 64.4748C93.6488 71.7278 93.2957 74.7074 92.9426 90.3504C92.5503 106.895 92.4326 140.377 92.7857 141.278C93.0211 141.827 96.0421 141.906 123.702 141.866C140.534 141.827 155.6 141.67 157.13 141.514ZM100.005 125.831C100.005 121.519 100.044 117.99 100.122 117.99C100.162 117.99 103.732 121.519 108.048 125.831L115.895 133.672H107.93L100.005 133.672L100.005 125.831ZM115.777 97.721L115.779 97.4299C115.934 76.7018 115.938 76.1438 116.836 73.1C120.485 60.3974 129.823 50.9097 142.181 47.342C144.849 46.5971 146.223 46.4403 151.402 46.4403C156.58 46.4403 157.954 46.5971 160.622 47.342C173.059 50.9097 182.514 60.5935 186.006 73.3352C186.751 76.1188 186.908 77.5694 186.908 82.7053C186.908 89.5271 186.202 92.9772 183.809 98.2307C178.826 108.934 168.665 116.853 157.365 118.774C156.345 118.931 146.536 119.088 135.59 119.127L115.659 119.166L115.777 97.721Z" fill="#FF5D19"/>
<path d="M157.13 141.514C174.942 139.632 191.185 129.477 200.758 114.266C204.446 108.346 207.624 99.9557 208.919 92.7027C209.86 87.41 209.86 78.0007 208.919 72.7079C207.624 65.4549 204.446 57.065 200.758 51.1449C194.991 41.9709 185.81 33.8161 176.119 29.2291C154.501 18.9965 128.999 23.0738 111.697 39.5009C104.203 46.6363 99.0631 54.8302 95.9636 64.4748C93.6488 71.7278 93.2957 74.7074 92.9426 90.3504C92.5503 106.895 92.4326 140.377 92.7857 141.278C93.0211 141.827 96.0421 141.906 123.702 141.866C140.534 141.827 155.6 141.67 157.13 141.514ZM100.005 125.831C100.005 121.519 100.044 117.99 100.122 117.99C100.162 117.99 103.732 121.519 108.048 125.831L115.895 133.672H107.93L100.005 133.672L100.005 125.831ZM115.777 97.721L115.779 97.4299C115.934 76.7018 115.938 76.1438 116.836 73.1C120.485 60.3974 129.823 50.9097 142.181 47.342C144.849 46.5971 146.223 46.4403 151.402 46.4403C156.58 46.4403 157.954 46.5971 160.622 47.342C173.059 50.9097 182.514 60.5935 186.006 73.3352C186.751 76.1188 186.908 77.5694 186.908 82.7053C186.908 89.5271 186.202 92.9772 183.809 98.2307C178.826 108.934 168.665 116.853 157.365 118.774C156.345 118.931 146.536 119.088 135.59 119.127L115.659 119.166L115.777 97.721Z" stroke="#FF5D19"/>
</svg>
