<?xml version="1.0" encoding="iso-8859-1"?>
<!-- Generator: Adobe Illustrator 19.0.0, SVG Export Plug-In . SVG Version: 6.00 Build 0)  -->
<svg version="1.1" id="Capa_1" xmlns="http://www.w3.org/2000/svg" xmlns:xlink="http://www.w3.org/1999/xlink" x="0px" y="0px"
	 viewBox="0 0 512.011 512.011" style="enable-background:new 0 0 512.011 512.011;" xml:space="preserve">
<g>
	<g>
		<path d="M511.728,212.149c-0.107-1.856-0.619-3.605-1.216-5.397c-0.363-1.109-0.597-2.219-1.131-3.264
			c-0.171-0.32-0.149-0.661-0.341-0.981c-0.832-1.387-2.048-2.325-3.115-3.456c-0.64-0.704-0.981-1.6-1.728-2.219l-34.859-28.501
			V85.344c0-11.776-9.557-21.333-21.333-21.333H341.851l-72.32-59.179c-7.872-6.443-19.179-6.443-27.029,0l-72.32,59.179H64.005
			c-11.776,0-21.333,9.557-21.333,21.333v82.987L7.835,196.853c-0.619,0.491-0.896,1.28-1.451,1.835
			c-1.195,1.216-2.517,2.283-3.413,3.819c-0.192,0.32-0.171,0.683-0.341,1.003c-0.555,1.024-0.747,2.112-1.131,3.2
			c-0.597,1.813-1.109,3.563-1.216,5.419c-0.021,0.427-0.277,0.789-0.277,1.216v277.333c0,11.797,9.557,21.333,21.333,21.333
			h469.333c0.021,0,0.021,0,0.043,0c2.517,0,4.971-0.597,7.339-1.472c0.555-0.213,1.088-0.405,1.643-0.661
			c2.176-1.024,4.224-2.283,5.973-4.032c0.171-0.171,0.277-0.384,0.427-0.555c1.088-1.152,2.112-2.347,2.944-3.776
			c0.235-0.405,0.235-0.853,0.448-1.259c0.661-1.28,1.024-2.645,1.408-4.075c0.384-1.408,0.747-2.752,0.832-4.16
			c0.043-0.469,0.277-0.853,0.277-1.344V213.344C512.005,212.917,511.771,212.555,511.728,212.149z M256.005,48.907l18.475,15.104
			h-36.928L256.005,48.907z M85.339,106.677h341.333v119.701L256.027,327.221L85.339,226.357V106.677z M42.672,469.344V250.741
			l369.963,218.603H42.672z M469.339,453.28L297.989,352.011l171.349-101.248V453.28z"/>
	</g>
</g>
<g>
</g>
<g>
</g>
<g>
</g>
<g>
</g>
<g>
</g>
<g>
</g>
<g>
</g>
<g>
</g>
<g>
</g>
<g>
</g>
<g>
</g>
<g>
</g>
<g>
</g>
<g>
</g>
<g>
</g>
</svg>
