<svg width="690" height="545" viewBox="0 0 690 545" fill="none" xmlns="http://www.w3.org/2000/svg">
<rect x="130" y="349" width="430" height="55" rx="10" fill="#FF5D19"/>
<path d="M219.694 381.875V385.125H206.144V367.625H219.369V370.875H210.169V374.675H218.294V377.825H210.169V381.875H219.694ZM229.044 385.325C227.611 385.325 226.319 385.033 225.169 384.45C224.036 383.85 223.144 383.025 222.494 381.975C221.861 380.925 221.544 379.733 221.544 378.4C221.544 377.067 221.861 375.875 222.494 374.825C223.144 373.775 224.036 372.958 225.169 372.375C226.319 371.775 227.611 371.475 229.044 371.475C230.461 371.475 231.694 371.775 232.744 372.375C233.811 372.958 234.586 373.8 235.069 374.9L232.044 376.525C231.344 375.292 230.336 374.675 229.019 374.675C228.002 374.675 227.161 375.008 226.494 375.675C225.827 376.342 225.494 377.25 225.494 378.4C225.494 379.55 225.827 380.458 226.494 381.125C227.161 381.792 228.002 382.125 229.019 382.125C230.352 382.125 231.361 381.508 232.044 380.275L235.069 381.925C234.586 382.992 233.811 383.825 232.744 384.425C231.694 385.025 230.461 385.325 229.044 385.325ZM245.392 371.475C247.058 371.475 248.4 371.975 249.417 372.975C250.45 373.975 250.967 375.458 250.967 377.425V385.125H247.067V378.025C247.067 376.958 246.833 376.167 246.367 375.65C245.9 375.117 245.225 374.85 244.342 374.85C243.358 374.85 242.575 375.158 241.992 375.775C241.408 376.375 241.117 377.275 241.117 378.475V385.125H237.217V366.575H241.117V373.075C241.633 372.558 242.258 372.167 242.992 371.9C243.725 371.617 244.525 371.475 245.392 371.475ZM259.927 371.475C262.01 371.475 263.61 371.975 264.727 372.975C265.844 373.958 266.402 375.45 266.402 377.45V385.125H262.752V383.45C262.019 384.7 260.652 385.325 258.652 385.325C257.619 385.325 256.719 385.15 255.952 384.8C255.202 384.45 254.627 383.967 254.227 383.35C253.827 382.733 253.627 382.033 253.627 381.25C253.627 380 254.094 379.017 255.027 378.3C255.977 377.583 257.435 377.225 259.402 377.225H262.502C262.502 376.375 262.244 375.725 261.727 375.275C261.21 374.808 260.435 374.575 259.402 374.575C258.685 374.575 257.977 374.692 257.277 374.925C256.594 375.142 256.01 375.442 255.527 375.825L254.127 373.1C254.86 372.583 255.735 372.183 256.752 371.9C257.785 371.617 258.844 371.475 259.927 371.475ZM259.627 382.7C260.294 382.7 260.885 382.55 261.402 382.25C261.919 381.933 262.285 381.475 262.502 380.875V379.5H259.827C258.227 379.5 257.427 380.025 257.427 381.075C257.427 381.575 257.619 381.975 258.002 382.275C258.402 382.558 258.944 382.7 259.627 382.7ZM278.107 371.475C279.773 371.475 281.115 371.975 282.132 372.975C283.165 373.975 283.682 375.458 283.682 377.425V385.125H279.782V378.025C279.782 376.958 279.548 376.167 279.082 375.65C278.615 375.117 277.94 374.85 277.057 374.85C276.073 374.85 275.29 375.158 274.707 375.775C274.123 376.375 273.832 377.275 273.832 378.475V385.125H269.932V371.675H273.657V373.25C274.173 372.683 274.815 372.25 275.582 371.95C276.348 371.633 277.19 371.475 278.107 371.475ZM301.238 371.675V382.875C301.238 385.342 300.597 387.175 299.313 388.375C298.03 389.575 296.155 390.175 293.688 390.175C292.388 390.175 291.155 390.017 289.988 389.7C288.822 389.383 287.855 388.925 287.088 388.325L288.638 385.525C289.205 385.992 289.922 386.358 290.788 386.625C291.655 386.908 292.522 387.05 293.388 387.05C294.738 387.05 295.73 386.742 296.363 386.125C297.013 385.525 297.338 384.608 297.338 383.375V382.8C296.322 383.917 294.905 384.475 293.088 384.475C291.855 384.475 290.722 384.208 289.688 383.675C288.672 383.125 287.863 382.358 287.263 381.375C286.663 380.392 286.363 379.258 286.363 377.975C286.363 376.692 286.663 375.558 287.263 374.575C287.863 373.592 288.672 372.833 289.688 372.3C290.722 371.75 291.855 371.475 293.088 371.475C295.038 371.475 296.522 372.117 297.538 373.4V371.675H301.238ZM293.863 381.275C294.897 381.275 295.738 380.975 296.388 380.375C297.055 379.758 297.388 378.958 297.388 377.975C297.388 376.992 297.055 376.2 296.388 375.6C295.738 374.983 294.897 374.675 293.863 374.675C292.83 374.675 291.98 374.983 291.313 375.6C290.647 376.2 290.313 376.992 290.313 377.975C290.313 378.958 290.647 379.758 291.313 380.375C291.98 380.975 292.83 381.275 293.863 381.275ZM318.043 378.45C318.043 378.5 318.018 378.85 317.968 379.5H307.793C307.976 380.333 308.41 380.992 309.093 381.475C309.776 381.958 310.626 382.2 311.643 382.2C312.343 382.2 312.96 382.1 313.493 381.9C314.043 381.683 314.551 381.35 315.018 380.9L317.093 383.15C315.826 384.6 313.976 385.325 311.543 385.325C310.026 385.325 308.685 385.033 307.518 384.45C306.351 383.85 305.451 383.025 304.818 381.975C304.185 380.925 303.868 379.733 303.868 378.4C303.868 377.083 304.176 375.9 304.793 374.85C305.426 373.783 306.285 372.958 307.368 372.375C308.468 371.775 309.693 371.475 311.043 371.475C312.36 371.475 313.551 371.758 314.618 372.325C315.685 372.892 316.518 373.708 317.118 374.775C317.735 375.825 318.043 377.05 318.043 378.45ZM311.068 374.425C310.185 374.425 309.443 374.675 308.843 375.175C308.243 375.675 307.876 376.358 307.743 377.225H314.368C314.235 376.375 313.868 375.7 313.268 375.2C312.668 374.683 311.935 374.425 311.068 374.425ZM325.165 385.325C324.048 385.325 322.956 385.192 321.89 384.925C320.823 384.642 319.973 384.292 319.34 383.875L320.64 381.075C321.24 381.458 321.965 381.775 322.815 382.025C323.665 382.258 324.498 382.375 325.315 382.375C326.965 382.375 327.79 381.967 327.79 381.15C327.79 380.767 327.565 380.492 327.115 380.325C326.665 380.158 325.973 380.017 325.04 379.9C323.94 379.733 323.031 379.542 322.315 379.325C321.598 379.108 320.973 378.725 320.44 378.175C319.923 377.625 319.665 376.842 319.665 375.825C319.665 374.975 319.906 374.225 320.39 373.575C320.89 372.908 321.606 372.392 322.54 372.025C323.49 371.658 324.606 371.475 325.89 371.475C326.84 371.475 327.781 371.583 328.715 371.8C329.665 372 330.448 372.283 331.065 372.65L329.765 375.425C328.581 374.758 327.29 374.425 325.89 374.425C325.056 374.425 324.431 374.542 324.015 374.775C323.598 375.008 323.39 375.308 323.39 375.675C323.39 376.092 323.615 376.383 324.065 376.55C324.515 376.717 325.231 376.875 326.215 377.025C327.315 377.208 328.215 377.408 328.915 377.625C329.615 377.825 330.223 378.2 330.74 378.75C331.256 379.3 331.515 380.067 331.515 381.05C331.515 381.883 331.265 382.625 330.765 383.275C330.265 383.925 329.531 384.433 328.565 384.8C327.615 385.15 326.481 385.325 325.165 385.325ZM357.201 385.125L357.176 374.625L352.026 383.275H350.201L345.076 374.85V385.125H341.276V367.625H344.626L351.176 378.5L357.626 367.625H360.951L361.001 385.125H357.201ZM370.303 371.475C372.386 371.475 373.986 371.975 375.103 372.975C376.22 373.958 376.778 375.45 376.778 377.45V385.125H373.128V383.45C372.395 384.7 371.028 385.325 369.028 385.325C367.995 385.325 367.095 385.15 366.328 384.8C365.578 384.45 365.003 383.967 364.603 383.35C364.203 382.733 364.003 382.033 364.003 381.25C364.003 380 364.47 379.017 365.403 378.3C366.353 377.583 367.811 377.225 369.778 377.225H372.878C372.878 376.375 372.62 375.725 372.103 375.275C371.586 374.808 370.811 374.575 369.778 374.575C369.061 374.575 368.353 374.692 367.653 374.925C366.97 375.142 366.386 375.442 365.903 375.825L364.503 373.1C365.236 372.583 366.111 372.183 367.128 371.9C368.161 371.617 369.22 371.475 370.303 371.475ZM370.003 382.7C370.67 382.7 371.261 382.55 371.778 382.25C372.295 381.933 372.661 381.475 372.878 380.875V379.5H370.203C368.603 379.5 367.803 380.025 367.803 381.075C367.803 381.575 367.995 381.975 368.378 382.275C368.778 382.558 369.32 382.7 370.003 382.7ZM380.308 371.675H384.208V385.125H380.308V371.675ZM382.258 369.8C381.541 369.8 380.958 369.592 380.508 369.175C380.058 368.758 379.833 368.242 379.833 367.625C379.833 367.008 380.058 366.492 380.508 366.075C380.958 365.658 381.541 365.45 382.258 365.45C382.974 365.45 383.558 365.65 384.008 366.05C384.458 366.45 384.683 366.95 384.683 367.55C384.683 368.2 384.458 368.742 384.008 369.175C383.558 369.592 382.974 369.8 382.258 369.8ZM396.002 371.475C397.669 371.475 399.01 371.975 400.027 372.975C401.06 373.975 401.577 375.458 401.577 377.425V385.125H397.677V378.025C397.677 376.958 397.444 376.167 396.977 375.65C396.51 375.117 395.835 374.85 394.952 374.85C393.969 374.85 393.185 375.158 392.602 375.775C392.019 376.375 391.727 377.275 391.727 378.475V385.125H387.827V371.675H391.552V373.25C392.069 372.683 392.71 372.25 393.477 371.95C394.244 371.633 395.085 371.475 396.002 371.475ZM413.787 384.475C413.404 384.758 412.929 384.975 412.362 385.125C411.812 385.258 411.229 385.325 410.612 385.325C409.012 385.325 407.771 384.917 406.887 384.1C406.021 383.283 405.587 382.083 405.587 380.5V374.975H403.512V371.975H405.587V368.7H409.487V371.975H412.837V374.975H409.487V380.45C409.487 381.017 409.629 381.458 409.912 381.775C410.212 382.075 410.629 382.225 411.162 382.225C411.779 382.225 412.304 382.058 412.737 381.725L413.787 384.475ZM428.737 378.45C428.737 378.5 428.712 378.85 428.662 379.5H418.487C418.67 380.333 419.103 380.992 419.787 381.475C420.47 381.958 421.32 382.2 422.337 382.2C423.037 382.2 423.653 382.1 424.187 381.9C424.737 381.683 425.245 381.35 425.712 380.9L427.787 383.15C426.52 384.6 424.67 385.325 422.237 385.325C420.72 385.325 419.378 385.033 418.212 384.45C417.045 383.85 416.145 383.025 415.512 381.975C414.878 380.925 414.562 379.733 414.562 378.4C414.562 377.083 414.87 375.9 415.487 374.85C416.12 373.783 416.978 372.958 418.062 372.375C419.162 371.775 420.387 371.475 421.737 371.475C423.053 371.475 424.245 371.758 425.312 372.325C426.378 372.892 427.212 373.708 427.812 374.775C428.428 375.825 428.737 377.05 428.737 378.45ZM421.762 374.425C420.878 374.425 420.137 374.675 419.537 375.175C418.937 375.675 418.57 376.358 418.437 377.225H425.062C424.928 376.375 424.562 375.7 423.962 375.2C423.362 374.683 422.628 374.425 421.762 374.425ZM439.508 371.475C441.175 371.475 442.516 371.975 443.533 372.975C444.566 373.975 445.083 375.458 445.083 377.425V385.125H441.183V378.025C441.183 376.958 440.95 376.167 440.483 375.65C440.016 375.117 439.341 374.85 438.458 374.85C437.475 374.85 436.691 375.158 436.108 375.775C435.525 376.375 435.233 377.275 435.233 378.475V385.125H431.333V371.675H435.058V373.25C435.575 372.683 436.216 372.25 436.983 371.95C437.75 371.633 438.591 371.475 439.508 371.475ZM454.043 371.475C456.126 371.475 457.726 371.975 458.843 372.975C459.96 373.958 460.518 375.45 460.518 377.45V385.125H456.868V383.45C456.135 384.7 454.768 385.325 452.768 385.325C451.735 385.325 450.835 385.15 450.068 384.8C449.318 384.45 448.743 383.967 448.343 383.35C447.943 382.733 447.743 382.033 447.743 381.25C447.743 380 448.21 379.017 449.143 378.3C450.093 377.583 451.551 377.225 453.518 377.225H456.618C456.618 376.375 456.36 375.725 455.843 375.275C455.326 374.808 454.551 374.575 453.518 374.575C452.801 374.575 452.093 374.692 451.393 374.925C450.71 375.142 450.126 375.442 449.643 375.825L448.243 373.1C448.976 372.583 449.851 372.183 450.868 371.9C451.901 371.617 452.96 371.475 454.043 371.475ZM453.743 382.7C454.41 382.7 455.001 382.55 455.518 382.25C456.035 381.933 456.401 381.475 456.618 380.875V379.5H453.943C452.343 379.5 451.543 380.025 451.543 381.075C451.543 381.575 451.735 381.975 452.118 382.275C452.518 382.558 453.06 382.7 453.743 382.7ZM472.223 371.475C473.89 371.475 475.231 371.975 476.248 372.975C477.281 373.975 477.798 375.458 477.798 377.425V385.125H473.898V378.025C473.898 376.958 473.665 376.167 473.198 375.65C472.731 375.117 472.056 374.85 471.173 374.85C470.19 374.85 469.406 375.158 468.823 375.775C468.24 376.375 467.948 377.275 467.948 378.475V385.125H464.048V371.675H467.773V373.25C468.29 372.683 468.931 372.25 469.698 371.95C470.465 371.633 471.306 371.475 472.223 371.475ZM490.008 384.475C489.625 384.758 489.15 384.975 488.583 385.125C488.033 385.258 487.45 385.325 486.833 385.325C485.233 385.325 483.991 384.917 483.108 384.1C482.241 383.283 481.808 382.083 481.808 380.5V374.975H479.733V371.975H481.808V368.7H485.708V371.975H489.058V374.975H485.708V380.45C485.708 381.017 485.85 381.458 486.133 381.775C486.433 382.075 486.85 382.225 487.383 382.225C488 382.225 488.525 382.058 488.958 381.725L490.008 384.475Z" fill="white"/>
<path d="M25.5008 99.864C21.5168 99.864 17.6528 99.336 13.9088 98.28C10.2128 97.176 7.23684 95.76 4.98084 94.032L8.94084 85.248C11.1008 86.832 13.6688 88.104 16.6448 89.064C19.6208 90.024 22.5968 90.504 25.5728 90.504C28.8848 90.504 31.3328 90.024 32.9168 89.064C34.5008 88.056 35.2928 86.736 35.2928 85.104C35.2928 83.904 34.8128 82.92 33.8528 82.152C32.9408 81.336 31.7408 80.688 30.2528 80.208C28.8128 79.728 26.8448 79.2 24.3488 78.624C20.5088 77.712 17.3648 76.8 14.9168 75.888C12.4688 74.976 10.3568 73.512 8.58084 71.496C6.85284 69.48 5.98884 66.792 5.98884 63.432C5.98884 60.504 6.78084 57.864 8.36484 55.512C9.94884 53.112 12.3248 51.216 15.4928 49.824C18.7088 48.432 22.6208 47.736 27.2288 47.736C30.4448 47.736 33.5888 48.12 36.6608 48.888C39.7328 49.656 42.4208 50.76 44.7248 52.2L41.1248 61.056C36.4688 58.416 31.8128 57.096 27.1568 57.096C23.8928 57.096 21.4688 57.624 19.8848 58.68C18.3488 59.736 17.5808 61.128 17.5808 62.856C17.5808 64.584 18.4688 65.88 20.2448 66.744C22.0688 67.56 24.8288 68.376 28.5248 69.192C32.3648 70.104 35.5088 71.016 37.9568 71.928C40.4048 72.84 42.4928 74.28 44.2208 76.248C45.9968 78.216 46.8848 80.88 46.8848 84.24C46.8848 87.12 46.0688 89.76 44.4368 92.16C42.8528 94.512 40.4528 96.384 37.2368 97.776C34.0208 99.168 30.1088 99.864 25.5008 99.864ZM129.807 48.6V78.336C129.807 85.344 127.911 90.696 124.119 94.392C120.327 98.04 114.951 99.864 107.991 99.864C104.535 99.864 101.439 99.36 98.7029 98.352C96.0149 97.344 93.8069 95.928 92.0789 94.104C90.3029 95.928 88.0709 97.344 85.3829 98.352C82.6949 99.36 79.6469 99.864 76.2389 99.864C69.2789 99.864 63.9029 98.04 60.1109 94.392C56.3189 90.696 54.4229 85.344 54.4229 78.336V48.6H66.0869V77.976C66.0869 82.056 66.9269 85.08 68.6069 87.048C70.2869 88.968 72.7829 89.928 76.0949 89.928C82.8629 89.928 86.2469 85.944 86.2469 77.976V48.6H97.9109V77.976C97.9109 85.944 101.319 89.928 108.135 89.928C114.759 89.928 118.071 85.944 118.071 77.976V48.6H129.807ZM164.019 47.736C168.675 47.736 172.731 48.648 176.187 50.472C179.643 52.296 182.331 54.984 184.251 58.536C186.171 62.088 187.131 66.384 187.131 71.424V99H175.467V86.904H152.427V99H140.907V71.424C140.907 66.384 141.867 62.088 143.787 58.536C145.707 54.984 148.395 52.296 151.851 50.472C155.307 48.648 159.363 47.736 164.019 47.736ZM175.467 77.544V70.344C175.467 66.168 174.435 63.024 172.371 60.912C170.307 58.752 167.499 57.672 163.947 57.672C160.347 57.672 157.515 58.752 155.451 60.912C153.435 63.024 152.427 66.168 152.427 70.344V77.544H175.467ZM220.46 48.6C224.924 48.6 228.788 49.344 232.052 50.832C235.364 52.32 237.908 54.432 239.684 57.168C241.46 59.904 242.348 63.144 242.348 66.888C242.348 70.584 241.46 73.824 239.684 76.608C237.908 79.344 235.364 81.456 232.052 82.944C228.788 84.384 224.924 85.104 220.46 85.104H210.308V99H198.644V48.6H220.46ZM219.812 75.6C223.316 75.6 225.98 74.856 227.804 73.368C229.628 71.832 230.54 69.672 230.54 66.888C230.54 64.056 229.628 61.896 227.804 60.408C225.98 58.872 223.316 58.104 219.812 58.104H210.308V75.6H219.812ZM308.489 62.712C304.169 60.216 299.537 58.608 294.593 57.888V99H282.929V57.888C277.985 58.608 273.329 60.216 268.961 62.712L265.001 54C268.457 51.936 272.201 50.376 276.233 49.32C280.265 48.264 284.417 47.736 288.689 47.736C293.009 47.736 297.185 48.264 301.217 49.32C305.297 50.376 309.041 51.936 312.449 54L308.489 62.712ZM363.907 48.6V99H352.243V78.336H329.347V99H317.683V48.6H329.347V68.472H352.243V48.6H363.907ZM417.015 94.68C414.615 96.312 411.591 97.584 407.943 98.496C404.343 99.408 400.503 99.864 396.423 99.864C391.335 99.864 387.015 99.24 383.463 97.992C379.911 96.696 377.223 94.92 375.399 92.664C373.575 90.36 372.663 87.744 372.663 84.816C372.663 82.128 373.407 79.752 374.895 77.688C376.383 75.624 378.423 74.088 381.015 73.08C379.047 72.024 377.511 70.584 376.407 68.76C375.351 66.936 374.823 64.896 374.823 62.64C374.823 59.904 375.663 57.408 377.343 55.152C379.023 52.896 381.567 51.096 384.975 49.752C388.383 48.408 392.559 47.736 397.503 47.736C400.767 47.736 403.959 48.072 407.079 48.744C410.199 49.368 412.911 50.232 415.215 51.336L411.975 60.264C407.559 58.2 402.879 57.168 397.935 57.168C394.191 57.168 391.359 57.744 389.439 58.896C387.567 60 386.631 61.512 386.631 63.432C386.631 65.208 387.255 66.576 388.503 67.536C389.799 68.448 391.743 68.904 394.335 68.904H408.087V78.12H393.615C390.687 78.12 388.431 78.624 386.847 79.632C385.263 80.64 384.471 82.104 384.471 84.024C384.471 86.04 385.479 87.624 387.495 88.776C389.559 89.88 392.703 90.432 396.927 90.432C399.903 90.432 402.879 90.048 405.855 89.28C408.831 88.464 411.351 87.336 413.415 85.896L417.015 94.68ZM478.302 73.008H488.958V99H480.174V95.976C476.67 98.568 472.158 99.864 466.638 99.864C461.982 99.864 457.71 98.856 453.822 96.84C449.934 94.824 446.838 91.896 444.534 88.056C442.23 84.168 441.078 79.56 441.078 74.232C441.078 69.096 442.254 64.536 444.606 60.552C447.006 56.52 450.318 53.376 454.542 51.12C458.766 48.864 463.518 47.736 468.798 47.736C473.214 47.736 477.222 48.48 480.822 49.968C484.422 51.456 487.446 53.616 489.894 56.448L482.406 63.36C478.806 59.568 474.462 57.672 469.374 57.672C466.158 57.672 463.302 58.368 460.806 59.76C458.31 61.104 456.366 63.024 454.974 65.52C453.582 68.016 452.886 70.896 452.886 74.16C452.886 77.568 453.558 80.472 454.902 82.872C456.294 85.272 458.142 87.096 460.446 88.344C462.75 89.544 465.27 90.144 468.006 90.144C472.086 90.144 475.518 88.992 478.302 86.688V73.008ZM522.472 47.736C527.128 47.736 531.184 48.648 534.64 50.472C538.096 52.296 540.784 54.984 542.704 58.536C544.624 62.088 545.584 66.384 545.584 71.424V99H533.92V86.904H510.88V99H499.36V71.424C499.36 66.384 500.32 62.088 502.24 58.536C504.16 54.984 506.848 52.296 510.304 50.472C513.76 48.648 517.816 47.736 522.472 47.736ZM533.92 77.544V70.344C533.92 66.168 532.888 63.024 530.824 60.912C528.76 58.752 525.952 57.672 522.4 57.672C518.8 57.672 515.968 58.752 513.904 60.912C511.888 63.024 510.88 66.168 510.88 70.344V77.544H533.92ZM614.625 47.736C620.577 47.736 625.209 49.488 628.521 52.992C631.833 56.448 633.489 61.464 633.489 68.04V99H621.825V68.4C621.825 64.848 620.889 62.184 619.017 60.408C617.193 58.584 614.769 57.672 611.745 57.672C608.433 57.672 605.793 58.632 603.825 60.552C601.857 62.424 600.873 65.28 600.873 69.12V99H589.209V68.4C589.209 64.848 588.345 62.184 586.617 60.408C584.889 58.584 582.537 57.672 579.561 57.672C576.297 57.672 573.681 58.632 571.713 60.552C569.745 62.424 568.761 65.28 568.761 69.12V99H557.097V48.6H568.401V54.792C569.937 52.536 571.977 50.808 574.521 49.608C577.065 48.36 579.993 47.736 583.305 47.736C586.761 47.736 589.785 48.384 592.377 49.68C594.969 50.928 596.961 52.752 598.353 55.152C600.081 52.752 602.337 50.928 605.121 49.68C607.953 48.384 611.121 47.736 614.625 47.736ZM686.172 94.68C683.772 96.312 680.748 97.584 677.1 98.496C673.5 99.408 669.66 99.864 665.58 99.864C660.492 99.864 656.172 99.24 652.62 97.992C649.068 96.696 646.38 94.92 644.556 92.664C642.732 90.36 641.82 87.744 641.82 84.816C641.82 82.128 642.564 79.752 644.052 77.688C645.54 75.624 647.58 74.088 650.172 73.08C648.204 72.024 646.668 70.584 645.564 68.76C644.508 66.936 643.98 64.896 643.98 62.64C643.98 59.904 644.82 57.408 646.5 55.152C648.18 52.896 650.724 51.096 654.132 49.752C657.54 48.408 661.716 47.736 666.66 47.736C669.924 47.736 673.116 48.072 676.236 48.744C679.356 49.368 682.068 50.232 684.372 51.336L681.132 60.264C676.716 58.2 672.036 57.168 667.092 57.168C663.348 57.168 660.516 57.744 658.596 58.896C656.724 60 655.788 61.512 655.788 63.432C655.788 65.208 656.412 66.576 657.66 67.536C658.956 68.448 660.9 68.904 663.492 68.904H677.244V78.12H662.772C659.844 78.12 657.588 78.624 656.004 79.632C654.42 80.64 653.628 82.104 653.628 84.024C653.628 86.04 654.636 87.624 656.652 88.776C658.716 89.88 661.86 90.432 666.084 90.432C669.06 90.432 672.036 90.048 675.012 89.28C677.988 88.464 680.508 87.336 682.572 85.896L686.172 94.68ZM60.2921 172.808C57.4121 171.144 54.3241 170.072 51.0281 169.592V197H43.2521V169.592C39.9561 170.072 36.8521 171.144 33.9401 172.808L31.3001 167C33.6041 165.624 36.1001 164.584 38.7881 163.88C41.4761 163.176 44.2441 162.824 47.0921 162.824C49.9721 162.824 52.7561 163.176 55.4441 163.88C58.1641 164.584 60.6601 165.624 62.9321 167L60.2921 172.808ZM72.5768 174.584C73.4728 173.336 74.6728 172.392 76.1768 171.752C77.7128 171.112 79.4728 170.792 81.4568 170.792V177.704C80.6248 177.64 80.0648 177.608 79.7768 177.608C77.6328 177.608 75.9528 178.216 74.7368 179.432C73.5208 180.616 72.9128 182.408 72.9128 184.808V197H65.4248V171.176H72.5768V174.584ZM97.9628 197.384C95.2428 197.384 92.7948 196.824 90.6188 195.704C88.4748 194.552 86.7948 192.968 85.5788 190.952C84.3628 188.936 83.7548 186.648 83.7548 184.088C83.7548 181.528 84.3628 179.24 85.5788 177.224C86.7948 175.208 88.4748 173.64 90.6188 172.52C92.7948 171.368 95.2428 170.792 97.9628 170.792C100.683 170.792 103.115 171.368 105.259 172.52C107.403 173.64 109.083 175.208 110.299 177.224C111.515 179.24 112.123 181.528 112.123 184.088C112.123 186.648 111.515 188.936 110.299 190.952C109.083 192.968 107.403 194.552 105.259 195.704C103.115 196.824 100.683 197.384 97.9628 197.384ZM97.9628 191.24C99.8828 191.24 101.451 190.6 102.667 189.32C103.915 188.008 104.539 186.264 104.539 184.088C104.539 181.912 103.915 180.184 102.667 178.904C101.451 177.592 99.8828 176.936 97.9628 176.936C96.0428 176.936 94.4588 177.592 93.2108 178.904C91.9628 180.184 91.3388 181.912 91.3388 184.088C91.3388 186.264 91.9628 188.008 93.2108 189.32C94.4588 190.6 96.0428 191.24 97.9628 191.24ZM143.144 171.176V197H136.04V193.928C135.048 195.048 133.864 195.912 132.488 196.52C131.112 197.096 129.624 197.384 128.024 197.384C124.632 197.384 121.944 196.408 119.96 194.456C117.976 192.504 116.984 189.608 116.984 185.768V171.176H124.472V184.664C124.472 188.824 126.216 190.904 129.704 190.904C131.496 190.904 132.936 190.328 134.024 189.176C135.112 187.992 135.656 186.248 135.656 183.944V171.176H143.144ZM175.713 171.176L164.817 197H157.089L146.241 171.176H153.969L161.121 188.744L168.513 171.176H175.713ZM191.073 191.384C192.417 191.384 193.601 191.192 194.625 190.808C195.681 190.392 196.657 189.752 197.553 188.888L201.537 193.208C199.105 195.992 195.553 197.384 190.881 197.384C187.969 197.384 185.393 196.824 183.153 195.704C180.913 194.552 179.185 192.968 177.969 190.952C176.753 188.936 176.145 186.648 176.145 184.088C176.145 181.56 176.737 179.288 177.921 177.272C179.137 175.224 180.785 173.64 182.865 172.52C184.977 171.368 187.345 170.792 189.969 170.792C192.433 170.792 194.673 171.32 196.689 172.376C198.705 173.4 200.305 174.904 201.489 176.888C202.705 178.84 203.313 181.16 203.313 183.848L184.209 187.544C184.753 188.824 185.601 189.784 186.753 190.424C187.937 191.064 189.377 191.384 191.073 191.384ZM189.969 176.456C188.081 176.456 186.545 177.064 185.361 178.28C184.177 179.496 183.553 181.176 183.489 183.32L196.065 180.872C195.713 179.528 194.993 178.456 193.905 177.656C192.817 176.856 191.505 176.456 189.969 176.456ZM217.035 197.384C214.891 197.384 212.795 197.128 210.747 196.616C208.699 196.072 207.067 195.4 205.851 194.6L208.347 189.224C209.499 189.96 210.891 190.568 212.523 191.048C214.155 191.496 215.755 191.72 217.323 191.72C220.491 191.72 222.075 190.936 222.075 189.368C222.075 188.632 221.643 188.104 220.779 187.784C219.915 187.464 218.587 187.192 216.795 186.968C214.683 186.648 212.939 186.28 211.563 185.864C210.187 185.448 208.987 184.712 207.963 183.656C206.971 182.6 206.475 181.096 206.475 179.144C206.475 177.512 206.939 176.072 207.867 174.824C208.827 173.544 210.203 172.552 211.995 171.848C213.819 171.144 215.963 170.792 218.427 170.792C220.251 170.792 222.059 171 223.851 171.416C225.675 171.8 227.179 172.344 228.363 173.048L225.867 178.376C223.595 177.096 221.115 176.456 218.427 176.456C216.827 176.456 215.627 176.68 214.827 177.128C214.027 177.576 213.627 178.152 213.627 178.856C213.627 179.656 214.059 180.216 214.923 180.536C215.787 180.856 217.163 181.16 219.051 181.448C221.163 181.8 222.891 182.184 224.235 182.6C225.579 182.984 226.747 183.704 227.739 184.76C228.731 185.816 229.227 187.288 229.227 189.176C229.227 190.776 228.747 192.2 227.787 193.448C226.827 194.696 225.419 195.672 223.563 196.376C221.739 197.048 219.563 197.384 217.035 197.384ZM260.448 191.384C261.792 191.384 262.976 191.192 264 190.808C265.056 190.392 266.032 189.752 266.928 188.888L270.912 193.208C268.48 195.992 264.928 197.384 260.256 197.384C257.344 197.384 254.768 196.824 252.528 195.704C250.288 194.552 248.56 192.968 247.344 190.952C246.128 188.936 245.52 186.648 245.52 184.088C245.52 181.56 246.112 179.288 247.296 177.272C248.512 175.224 250.16 173.64 252.24 172.52C254.352 171.368 256.72 170.792 259.344 170.792C261.808 170.792 264.048 171.32 266.064 172.376C268.08 173.4 269.68 174.904 270.864 176.888C272.08 178.84 272.688 181.16 272.688 183.848L253.584 187.544C254.128 188.824 254.976 189.784 256.128 190.424C257.312 191.064 258.752 191.384 260.448 191.384ZM259.344 176.456C257.456 176.456 255.92 177.064 254.736 178.28C253.552 179.496 252.928 181.176 252.864 183.32L265.44 180.872C265.088 179.528 264.368 178.456 263.28 177.656C262.192 176.856 260.88 176.456 259.344 176.456ZM293.274 195.752C292.538 196.296 291.626 196.712 290.538 197C289.482 197.256 288.378 197.384 287.226 197.384C284.122 197.384 281.738 196.6 280.074 195.032C278.41 193.464 277.578 191.16 277.578 188.12V165.464H285.066V171.752H291.45V177.512H285.066V188.024C285.066 189.112 285.338 189.96 285.882 190.568C286.426 191.144 287.21 191.432 288.234 191.432C289.386 191.432 290.41 191.112 291.306 190.472L293.274 195.752ZM324.105 191.384C325.449 191.384 326.633 191.192 327.657 190.808C328.713 190.392 329.689 189.752 330.585 188.888L334.569 193.208C332.137 195.992 328.585 197.384 323.913 197.384C321.001 197.384 318.425 196.824 316.185 195.704C313.945 194.552 312.217 192.968 311.001 190.952C309.785 188.936 309.177 186.648 309.177 184.088C309.177 181.56 309.769 179.288 310.953 177.272C312.169 175.224 313.817 173.64 315.897 172.52C318.009 171.368 320.377 170.792 323.001 170.792C325.465 170.792 327.705 171.32 329.721 172.376C331.737 173.4 333.337 174.904 334.521 176.888C335.737 178.84 336.345 181.16 336.345 183.848L317.241 187.544C317.785 188.824 318.633 189.784 319.785 190.424C320.969 191.064 322.409 191.384 324.105 191.384ZM323.001 176.456C321.113 176.456 319.577 177.064 318.393 178.28C317.209 179.496 316.585 181.176 316.521 183.32L329.097 180.872C328.745 179.528 328.025 178.456 326.937 177.656C325.849 176.856 324.537 176.456 323.001 176.456ZM324.969 160.952H333.033L324.345 167.864H318.489L324.969 160.952ZM353.858 197.384C351.106 197.384 348.626 196.824 346.418 195.704C344.242 194.552 342.53 192.968 341.282 190.952C340.066 188.936 339.458 186.648 339.458 184.088C339.458 181.528 340.066 179.24 341.282 177.224C342.53 175.208 344.242 173.64 346.418 172.52C348.626 171.368 351.106 170.792 353.858 170.792C356.578 170.792 358.946 171.368 360.962 172.52C363.01 173.64 364.498 175.256 365.426 177.368L359.618 180.488C358.274 178.12 356.338 176.936 353.81 176.936C351.858 176.936 350.242 177.576 348.962 178.856C347.682 180.136 347.042 181.88 347.042 184.088C347.042 186.296 347.682 188.04 348.962 189.32C350.242 190.6 351.858 191.24 353.81 191.24C356.37 191.24 358.306 190.056 359.618 187.688L365.426 190.856C364.498 192.904 363.01 194.504 360.962 195.656C358.946 196.808 356.578 197.384 353.858 197.384ZM385.246 170.792C388.446 170.792 391.022 171.752 392.974 173.672C394.958 175.592 395.95 178.44 395.95 182.216V197H388.462V183.368C388.462 181.32 388.014 179.8 387.118 178.808C386.222 177.784 384.926 177.272 383.23 177.272C381.342 177.272 379.838 177.864 378.718 179.048C377.598 180.2 377.038 181.928 377.038 184.232V197H369.55V161.384H377.038V173.864C378.03 172.872 379.23 172.12 380.638 171.608C382.046 171.064 383.582 170.792 385.246 170.792ZM429.227 171.176V197H422.075V194.024C420.219 196.264 417.531 197.384 414.011 197.384C411.579 197.384 409.371 196.84 407.387 195.752C405.435 194.664 403.899 193.112 402.779 191.096C401.659 189.08 401.099 186.744 401.099 184.088C401.099 181.432 401.659 179.096 402.779 177.08C403.899 175.064 405.435 173.512 407.387 172.424C409.371 171.336 411.579 170.792 414.011 170.792C417.307 170.792 419.883 171.832 421.739 173.912V171.176H429.227ZM415.307 191.24C417.195 191.24 418.763 190.6 420.011 189.32C421.259 188.008 421.883 186.264 421.883 184.088C421.883 181.912 421.259 180.184 420.011 178.904C418.763 177.592 417.195 176.936 415.307 176.936C413.387 176.936 411.803 177.592 410.555 178.904C409.307 180.184 408.683 181.912 408.683 184.088C408.683 186.264 409.307 188.008 410.555 189.32C411.803 190.6 413.387 191.24 415.307 191.24ZM451.855 170.792C455.055 170.792 457.631 171.752 459.583 173.672C461.567 175.592 462.559 178.44 462.559 182.216V197H455.071V183.368C455.071 181.32 454.623 179.8 453.727 178.808C452.831 177.784 451.535 177.272 449.839 177.272C447.951 177.272 446.447 177.864 445.327 179.048C444.207 180.2 443.647 181.928 443.647 184.232V197H436.159V171.176H443.311V174.2C444.303 173.112 445.535 172.28 447.007 171.704C448.479 171.096 450.095 170.792 451.855 170.792ZM496.268 171.176V192.68C496.268 197.416 495.036 200.936 492.572 203.24C490.108 205.544 486.508 206.696 481.772 206.696C479.276 206.696 476.908 206.392 474.668 205.784C472.428 205.176 470.572 204.296 469.1 203.144L472.076 197.768C473.164 198.664 474.54 199.368 476.204 199.88C477.868 200.424 479.532 200.696 481.196 200.696C483.788 200.696 485.692 200.104 486.908 198.92C488.156 197.768 488.78 196.008 488.78 193.64V192.536C486.828 194.68 484.108 195.752 480.62 195.752C478.252 195.752 476.076 195.24 474.092 194.216C472.14 193.16 470.588 191.688 469.436 189.8C468.284 187.912 467.708 185.736 467.708 183.272C467.708 180.808 468.284 178.632 469.436 176.744C470.588 174.856 472.14 173.4 474.092 172.376C476.076 171.32 478.252 170.792 480.62 170.792C484.364 170.792 487.212 172.024 489.164 174.488V171.176H496.268ZM482.108 189.608C484.092 189.608 485.708 189.032 486.956 187.88C488.236 186.696 488.876 185.16 488.876 183.272C488.876 181.384 488.236 179.864 486.956 178.712C485.708 177.528 484.092 176.936 482.108 176.936C480.124 176.936 478.492 177.528 477.212 178.712C475.932 179.864 475.292 181.384 475.292 183.272C475.292 185.16 475.932 186.696 477.212 187.88C478.492 189.032 480.124 189.608 482.108 189.608ZM516.245 191.384C517.589 191.384 518.773 191.192 519.797 190.808C520.853 190.392 521.829 189.752 522.725 188.888L526.709 193.208C524.277 195.992 520.725 197.384 516.053 197.384C513.141 197.384 510.565 196.824 508.325 195.704C506.085 194.552 504.357 192.968 503.141 190.952C501.925 188.936 501.317 186.648 501.317 184.088C501.317 181.56 501.909 179.288 503.093 177.272C504.309 175.224 505.957 173.64 508.037 172.52C510.149 171.368 512.517 170.792 515.141 170.792C517.605 170.792 519.845 171.32 521.861 172.376C523.877 173.4 525.477 174.904 526.661 176.888C527.877 178.84 528.485 181.16 528.485 183.848L509.381 187.544C509.925 188.824 510.773 189.784 511.925 190.424C513.109 191.064 514.549 191.384 516.245 191.384ZM515.141 176.456C513.253 176.456 511.717 177.064 510.533 178.28C509.349 179.496 508.725 181.176 508.661 183.32L521.237 180.872C520.885 179.528 520.165 178.456 519.077 177.656C517.989 176.856 516.677 176.456 515.141 176.456ZM542.207 197.384C540.063 197.384 537.967 197.128 535.919 196.616C533.871 196.072 532.239 195.4 531.023 194.6L533.519 189.224C534.671 189.96 536.063 190.568 537.695 191.048C539.327 191.496 540.927 191.72 542.495 191.72C545.663 191.72 547.247 190.936 547.247 189.368C547.247 188.632 546.815 188.104 545.951 187.784C545.087 187.464 543.759 187.192 541.967 186.968C539.855 186.648 538.111 186.28 536.735 185.864C535.359 185.448 534.159 184.712 533.135 183.656C532.143 182.6 531.646 181.096 531.646 179.144C531.646 177.512 532.111 176.072 533.039 174.824C533.999 173.544 535.375 172.552 537.167 171.848C538.991 171.144 541.135 170.792 543.599 170.792C545.423 170.792 547.231 171 549.023 171.416C550.847 171.8 552.351 172.344 553.535 173.048L551.039 178.376C548.767 177.096 546.287 176.456 543.599 176.456C541.999 176.456 540.799 176.68 539.999 177.128C539.199 177.576 538.799 178.152 538.799 178.856C538.799 179.656 539.231 180.216 540.095 180.536C540.959 180.856 542.335 181.16 544.223 181.448C546.335 181.8 548.063 182.184 549.407 182.6C550.751 182.984 551.919 183.704 552.911 184.76C553.903 185.816 554.399 187.288 554.399 189.176C554.399 190.776 553.919 192.2 552.959 193.448C551.999 194.696 550.591 195.672 548.735 196.376C546.911 197.048 544.735 197.384 542.207 197.384ZM598.916 161.384V197H591.764V194.024C589.908 196.264 587.22 197.384 583.7 197.384C581.268 197.384 579.06 196.84 577.076 195.752C575.124 194.664 573.588 193.112 572.468 191.096C571.348 189.08 570.788 186.744 570.788 184.088C570.788 181.432 571.348 179.096 572.468 177.08C573.588 175.064 575.124 173.512 577.076 172.424C579.06 171.336 581.268 170.792 583.7 170.792C586.996 170.792 589.572 171.832 591.428 173.912V161.384H598.916ZM584.996 191.24C586.884 191.24 588.452 190.6 589.7 189.32C590.948 188.008 591.572 186.264 591.572 184.088C591.572 181.912 590.948 180.184 589.7 178.904C588.452 177.592 586.884 176.936 584.996 176.936C583.076 176.936 581.492 177.592 580.244 178.904C578.996 180.184 578.372 181.912 578.372 184.088C578.372 186.264 578.996 188.008 580.244 189.32C581.492 190.6 583.076 191.24 584.996 191.24ZM618.855 191.384C620.199 191.384 621.383 191.192 622.407 190.808C623.463 190.392 624.439 189.752 625.335 188.888L629.319 193.208C626.887 195.992 623.335 197.384 618.663 197.384C615.751 197.384 613.175 196.824 610.935 195.704C608.695 194.552 606.967 192.968 605.751 190.952C604.535 188.936 603.927 186.648 603.927 184.088C603.927 181.56 604.519 179.288 605.703 177.272C606.919 175.224 608.567 173.64 610.647 172.52C612.759 171.368 615.127 170.792 617.751 170.792C620.215 170.792 622.455 171.32 624.471 172.376C626.487 173.4 628.087 174.904 629.271 176.888C630.487 178.84 631.095 181.16 631.095 183.848L611.991 187.544C612.535 188.824 613.383 189.784 614.535 190.424C615.719 191.064 617.159 191.384 618.855 191.384ZM617.751 176.456C615.863 176.456 614.327 177.064 613.143 178.28C611.959 179.496 611.335 181.176 611.271 183.32L623.847 180.872C623.495 179.528 622.775 178.456 621.687 177.656C620.599 176.856 619.287 176.456 617.751 176.456ZM644.816 197.384C642.672 197.384 640.576 197.128 638.528 196.616C636.48 196.072 634.848 195.4 633.632 194.6L636.128 189.224C637.28 189.96 638.672 190.568 640.304 191.048C641.936 191.496 643.536 191.72 645.104 191.72C648.272 191.72 649.856 190.936 649.856 189.368C649.856 188.632 649.424 188.104 648.56 187.784C647.696 187.464 646.368 187.192 644.576 186.968C642.464 186.648 640.72 186.28 639.344 185.864C637.968 185.448 636.768 184.712 635.744 183.656C634.752 182.6 634.256 181.096 634.256 179.144C634.256 177.512 634.72 176.072 635.648 174.824C636.608 173.544 637.984 172.552 639.776 171.848C641.6 171.144 643.744 170.792 646.208 170.792C648.032 170.792 649.84 171 651.632 171.416C653.456 171.8 654.96 172.344 656.144 173.048L653.648 178.376C651.376 177.096 648.896 176.456 646.208 176.456C644.608 176.456 643.408 176.68 642.608 177.128C641.808 177.576 641.408 178.152 641.408 178.856C641.408 179.656 641.84 180.216 642.704 180.536C643.568 180.856 644.944 181.16 646.832 181.448C648.944 181.8 650.672 182.184 652.016 182.6C653.36 182.984 654.528 183.704 655.52 184.76C656.512 185.816 657.008 187.288 657.008 189.176C657.008 190.776 656.528 192.2 655.568 193.448C654.608 194.696 653.2 195.672 651.344 196.376C649.52 197.048 647.344 197.384 644.816 197.384ZM133.184 286.696C130.56 286.696 128.56 286.216 127.184 285.256L129.2 279.832C130.064 280.44 131.12 280.744 132.368 280.744C133.328 280.744 134.08 280.424 134.624 279.784C135.168 279.176 135.44 278.248 135.44 277V251.176H142.928V276.952C142.928 279.96 142.064 282.328 140.336 284.056C138.64 285.816 136.256 286.696 133.184 286.696ZM139.184 247.576C137.808 247.576 136.688 247.176 135.824 246.376C134.96 245.576 134.528 244.584 134.528 243.4C134.528 242.216 134.96 241.224 135.824 240.424C136.688 239.624 137.808 239.224 139.184 239.224C140.56 239.224 141.68 239.608 142.544 240.376C143.408 241.144 143.84 242.104 143.84 243.256C143.84 244.504 143.408 245.544 142.544 246.376C141.68 247.176 140.56 247.576 139.184 247.576ZM162.831 271.384C164.175 271.384 165.359 271.192 166.383 270.808C167.439 270.392 168.415 269.752 169.311 268.888L173.295 273.208C170.863 275.992 167.311 277.384 162.639 277.384C159.727 277.384 157.151 276.824 154.911 275.704C152.671 274.552 150.943 272.968 149.727 270.952C148.511 268.936 147.903 266.648 147.903 264.088C147.903 261.56 148.495 259.288 149.679 257.272C150.895 255.224 152.543 253.64 154.623 252.52C156.735 251.368 159.103 250.792 161.727 250.792C164.191 250.792 166.431 251.32 168.447 252.376C170.463 253.4 172.063 254.904 173.247 256.888C174.463 258.84 175.071 261.16 175.071 263.848L155.967 267.544C156.511 268.824 157.359 269.784 158.511 270.424C159.695 271.064 161.135 271.384 162.831 271.384ZM161.727 256.456C159.839 256.456 158.303 257.064 157.119 258.28C155.935 259.496 155.311 261.176 155.247 263.32L167.823 260.872C167.471 259.528 166.751 258.456 165.663 257.656C164.575 256.856 163.263 256.456 161.727 256.456ZM206.12 251.176V277H199.016V273.928C198.024 275.048 196.84 275.912 195.464 276.52C194.088 277.096 192.6 277.384 191 277.384C187.608 277.384 184.92 276.408 182.936 274.456C180.952 272.504 179.96 269.608 179.96 265.768V251.176H187.448V264.664C187.448 268.824 189.192 270.904 192.68 270.904C194.472 270.904 195.912 270.328 197 269.176C198.088 267.992 198.632 266.248 198.632 263.944V251.176H206.12ZM229.474 277L223.81 269.08L217.954 277H209.794L219.73 263.992L210.13 251.176H218.53L224.002 258.712L229.618 251.176H237.586L227.986 263.8L237.97 277H229.474ZM268.206 271.384C269.55 271.384 270.734 271.192 271.758 270.808C272.814 270.392 273.79 269.752 274.686 268.888L278.67 273.208C276.238 275.992 272.686 277.384 268.014 277.384C265.102 277.384 262.526 276.824 260.286 275.704C258.046 274.552 256.318 272.968 255.102 270.952C253.886 268.936 253.278 266.648 253.278 264.088C253.278 261.56 253.87 259.288 255.054 257.272C256.27 255.224 257.918 253.64 259.998 252.52C262.11 251.368 264.478 250.792 267.102 250.792C269.566 250.792 271.806 251.32 273.822 252.376C275.838 253.4 277.438 254.904 278.622 256.888C279.838 258.84 280.446 261.16 280.446 263.848L261.342 267.544C261.886 268.824 262.734 269.784 263.886 270.424C265.07 271.064 266.51 271.384 268.206 271.384ZM267.102 256.456C265.214 256.456 263.678 257.064 262.494 258.28C261.31 259.496 260.686 261.176 260.622 263.32L273.198 260.872C272.846 259.528 272.126 258.456 271.038 257.656C269.95 256.856 268.638 256.456 267.102 256.456ZM301.175 250.792C304.375 250.792 306.951 251.752 308.903 253.672C310.887 255.592 311.879 258.44 311.879 262.216V277H304.391V263.368C304.391 261.32 303.943 259.8 303.047 258.808C302.151 257.784 300.855 257.272 299.159 257.272C297.271 257.272 295.767 257.864 294.647 259.048C293.527 260.2 292.967 261.928 292.967 264.232V277H285.479V251.176H292.631V254.2C293.623 253.112 294.855 252.28 296.327 251.704C297.799 251.096 299.415 250.792 301.175 250.792ZM332.261 251.176H339.749V277H332.261V251.176ZM336.005 247.576C334.629 247.576 333.509 247.176 332.645 246.376C331.781 245.576 331.349 244.584 331.349 243.4C331.349 242.216 331.781 241.224 332.645 240.424C333.509 239.624 334.629 239.224 336.005 239.224C337.381 239.224 338.501 239.608 339.365 240.376C340.229 241.144 340.661 242.104 340.661 243.256C340.661 244.504 340.229 245.544 339.365 246.376C338.501 247.176 337.381 247.576 336.005 247.576ZM355.962 277.384C353.05 277.384 350.778 276.616 349.146 275.08C347.514 273.512 346.698 271.304 346.698 268.456V241.384H354.186V268.024C354.186 269.112 354.458 269.96 355.002 270.568C355.578 271.144 356.378 271.432 357.402 271.432C357.786 271.432 358.17 271.384 358.554 271.288C358.97 271.192 359.29 271.08 359.514 270.952L359.85 276.76C358.602 277.176 357.306 277.384 355.962 277.384ZM372.79 277.384C369.878 277.384 367.606 276.616 365.974 275.08C364.342 273.512 363.526 271.304 363.526 268.456V241.384H371.014V268.024C371.014 269.112 371.286 269.96 371.83 270.568C372.406 271.144 373.206 271.432 374.23 271.432C374.614 271.432 374.998 271.384 375.382 271.288C375.798 271.192 376.118 271.08 376.342 270.952L376.678 276.76C375.43 277.176 374.134 277.384 372.79 277.384ZM380.354 251.176H387.842V277H380.354V251.176ZM384.098 247.576C382.722 247.576 381.602 247.176 380.738 246.376C379.874 245.576 379.442 244.584 379.442 243.4C379.442 242.216 379.874 241.224 380.738 240.424C381.602 239.624 382.722 239.224 384.098 239.224C385.474 239.224 386.594 239.608 387.458 240.376C388.322 241.144 388.754 242.104 388.754 243.256C388.754 244.504 388.322 245.544 387.458 246.376C386.594 247.176 385.474 247.576 384.098 247.576ZM427.864 250.792C431.096 250.792 433.656 251.752 435.544 253.672C437.464 255.56 438.424 258.408 438.424 262.216V277H430.936V263.368C430.936 261.32 430.504 259.8 429.64 258.808C428.808 257.784 427.608 257.272 426.04 257.272C424.28 257.272 422.888 257.848 421.864 259C420.84 260.12 420.328 261.8 420.328 264.04V277H412.84V263.368C412.84 259.304 411.208 257.272 407.944 257.272C406.216 257.272 404.84 257.848 403.816 259C402.792 260.12 402.28 261.8 402.28 264.04V277H394.792V251.176H401.944V254.152C402.904 253.064 404.072 252.232 405.448 251.656C406.856 251.08 408.392 250.792 410.056 250.792C411.88 250.792 413.528 251.16 415 251.896C416.472 252.6 417.656 253.64 418.552 255.016C419.608 253.672 420.936 252.632 422.536 251.896C424.168 251.16 425.944 250.792 427.864 250.792ZM445.136 251.176H452.624V277H445.136V251.176ZM448.88 247.576C447.504 247.576 446.384 247.176 445.52 246.376C444.656 245.576 444.224 244.584 444.224 243.4C444.224 242.216 444.656 241.224 445.52 240.424C446.384 239.624 447.504 239.224 448.88 239.224C450.256 239.224 451.376 239.608 452.24 240.376C453.104 241.144 453.536 242.104 453.536 243.256C453.536 244.504 453.104 245.544 452.24 246.376C451.376 247.176 450.256 247.576 448.88 247.576ZM475.125 275.752C474.389 276.296 473.477 276.712 472.389 277C471.333 277.256 470.229 277.384 469.077 277.384C465.973 277.384 463.589 276.6 461.925 275.032C460.261 273.464 459.429 271.16 459.429 268.12V245.464H466.917V251.752H473.301V257.512H466.917V268.024C466.917 269.112 467.189 269.96 467.733 270.568C468.277 271.144 469.061 271.432 470.085 271.432C471.237 271.432 472.261 271.112 473.157 270.472L475.125 275.752ZM491.566 271.384C492.91 271.384 494.094 271.192 495.118 270.808C496.174 270.392 497.15 269.752 498.046 268.888L502.03 273.208C499.598 275.992 496.046 277.384 491.374 277.384C488.462 277.384 485.886 276.824 483.646 275.704C481.406 274.552 479.678 272.968 478.462 270.952C477.246 268.936 476.638 266.648 476.638 264.088C476.638 261.56 477.23 259.288 478.414 257.272C479.63 255.224 481.278 253.64 483.358 252.52C485.47 251.368 487.838 250.792 490.462 250.792C492.926 250.792 495.166 251.32 497.182 252.376C499.198 253.4 500.798 254.904 501.982 256.888C503.198 258.84 503.806 261.16 503.806 263.848L484.702 267.544C485.246 268.824 486.094 269.784 487.246 270.424C488.43 271.064 489.87 271.384 491.566 271.384ZM490.462 256.456C488.574 256.456 487.038 257.064 485.854 258.28C484.67 259.496 484.046 261.176 483.982 263.32L496.558 260.872C496.206 259.528 495.486 258.456 494.398 257.656C493.31 256.856 491.998 256.456 490.462 256.456ZM492.43 240.952H500.494L491.806 247.864H485.95L492.43 240.952ZM517.527 277.384C515.383 277.384 513.287 277.128 511.239 276.616C509.191 276.072 507.559 275.4 506.343 274.6L508.839 269.224C509.991 269.96 511.383 270.568 513.015 271.048C514.647 271.496 516.247 271.72 517.815 271.72C520.983 271.72 522.567 270.936 522.567 269.368C522.567 268.632 522.135 268.104 521.271 267.784C520.407 267.464 519.079 267.192 517.287 266.968C515.175 266.648 513.431 266.28 512.055 265.864C510.679 265.448 509.479 264.712 508.455 263.656C507.463 262.6 506.967 261.096 506.967 259.144C506.967 257.512 507.431 256.072 508.359 254.824C509.319 253.544 510.695 252.552 512.487 251.848C514.311 251.144 516.455 250.792 518.919 250.792C520.743 250.792 522.551 251 524.343 251.416C526.167 251.8 527.671 252.344 528.855 253.048L526.359 258.376C524.087 257.096 521.607 256.456 518.919 256.456C517.319 256.456 516.119 256.68 515.319 257.128C514.519 257.576 514.119 258.152 514.119 258.856C514.119 259.656 514.551 260.216 515.415 260.536C516.279 260.856 517.655 261.16 519.543 261.448C521.655 261.8 523.383 262.184 524.727 262.6C526.071 262.984 527.239 263.704 528.231 264.76C529.223 265.816 529.719 267.288 529.719 269.176C529.719 270.776 529.239 272.2 528.279 273.448C527.319 274.696 525.911 275.672 524.055 276.376C522.231 277.048 520.055 277.384 517.527 277.384ZM546.973 243.4H555.901L554.413 265.336H548.461L546.973 243.4ZM551.437 277.384C550.125 277.384 549.021 276.968 548.125 276.136C547.261 275.272 546.829 274.232 546.829 273.016C546.829 271.8 547.261 270.792 548.125 269.992C548.989 269.16 550.093 268.744 551.437 268.744C552.781 268.744 553.885 269.16 554.749 269.992C555.613 270.792 556.045 271.8 556.045 273.016C556.045 274.232 555.597 275.272 554.701 276.136C553.837 276.968 552.749 277.384 551.437 277.384Z" fill="#29647C"/>
</svg>
